HIERARCHY
ROOT mixamorig:Hips
{
	OFFSET -0.000008 104.274872 1.554316
	CHANNELS 6 Xposition Yposition Zposition Xrotation Yrotation Zrotation
	JOINT mixamorig:Spine
	{
		OFFSET -0.000005 10.181595 0.131519
		CHANNELS 6 Xposition Yposition Zposition Xrotation Yrotation Zrotation
		JOINT mixamorig:Spine1
		{
			OFFSET -0.000000 9.893959 -1.470707
			CHANNELS 6 Xposition Yposition Zposition Xrotation Yrotation Zrotation
			JOINT mixamorig:Spine2
			{
				OFFSET -0.000000 9.220757 -1.370641
				CHANNELS 6 Xposition Yposition Zposition Xrotation Yrotation Zrotation
				JOINT mixamorig:Neck
				{
					OFFSET 0.000001 16.740417 -2.049036
					CHANNELS 6 Xposition Yposition Zposition Xrotation Yrotation Zrotation
					JOINT mixamorig:Head
					{
						OFFSET 0.000000 9.617874 1.685006
						CHANNELS 6 Xposition Yposition Zposition Xrotation Yrotation Zrotation
						JOINT mixamorig:HeadTop_End
						{
							OFFSET 0.000002 22.037354 7.501101
							CHANNELS 6 Xposition Yposition Zposition Xrotation Yrotation Zrotation
							End Site
							{
								OFFSET 0.000168 2310.654297 -282.823242
							}
						}
					}
				}
				JOINT mixamorig:RightShoulder
				{
					OFFSET -4.569970 11.014908 -2.160885
					CHANNELS 6 Xposition Yposition Zposition Xrotation Yrotation Zrotation
					JOINT mixamorig:RightArm
					{
						OFFSET -10.592851 -0.524811 -2.232101
						CHANNELS 6 Xposition Yposition Zposition Xrotation Yrotation Zrotation
						JOINT mixamorig:RightForeArm
						{
							OFFSET -27.841511 0.000031 -0.000004
							CHANNELS 6 Xposition Yposition Zposition Xrotation Yrotation Zrotation
							JOINT mixamorig:RightHand
							{
								OFFSET -28.328831 -0.000015 0.000015
								CHANNELS 6 Xposition Yposition Zposition Xrotation Yrotation Zrotation
								JOINT mixamorig:RightHandThumb1
								{
									OFFSET -2.464806 -1.573990 2.681852
									CHANNELS 6 Xposition Yposition Zposition Xrotation Yrotation Zrotation
									JOINT mixamorig:RightHandThumb2
									{
										OFFSET -3.215179 -1.872803 1.924282
										CHANNELS 6 Xposition Yposition Zposition Xrotation Yrotation Zrotation
										JOINT mixamorig:RightHandThumb3
										{
											OFFSET -2.654831 -1.527969 1.512609
											CHANNELS 6 Xposition Yposition Zposition Xrotation Yrotation Zrotation
											JOINT mixamorig:RightHandThumb4
											{
												OFFSET -2.018814 -1.152008 1.108052
												CHANNELS 6 Xposition Yposition Zposition Xrotation Yrotation Zrotation
												End Site
												{
													OFFSET -188.809540 -114.533607 132.431396
												}
											}
										}
									}
								}
								JOINT mixamorig:RightHandIndex1
								{
									OFFSET -9.108284 -0.517868 2.259835
									CHANNELS 6 Xposition Yposition Zposition Xrotation Yrotation Zrotation
									JOINT mixamorig:RightHandIndex2
									{
										OFFSET -3.699989 0.000000 0.001215
										CHANNELS 6 Xposition Yposition Zposition Xrotation Yrotation Zrotation
										JOINT mixamorig:RightHandIndex3
										{
											OFFSET -2.850006 0.000031 -0.000522
											CHANNELS 6 Xposition Yposition Zposition Xrotation Yrotation Zrotation
											JOINT mixamorig:RightHandIndex4
											{
												OFFSET -2.772186 -0.000015 -0.000020
												CHANNELS 6 Xposition Yposition Zposition Xrotation Yrotation Zrotation
												End Site
												{
													OFFSET -277.218445 0.000000 -0.050231
												}
											}
										}
									}
								}
								JOINT mixamorig:RightHandMiddle1
								{
									OFFSET -9.532516 -0.000031 -0.000023
									CHANNELS 6 Xposition Yposition Zposition Xrotation Yrotation Zrotation
									JOINT mixamorig:RightHandMiddle2
									{
										OFFSET -3.700005 -0.000015 0.003713
										CHANNELS 6 Xposition Yposition Zposition Xrotation Yrotation Zrotation
										JOINT mixamorig:RightHandMiddle3
										{
											OFFSET -2.949974 0.000015 -0.002054
											CHANNELS 6 Xposition Yposition Zposition Xrotation Yrotation Zrotation
											JOINT mixamorig:RightHandMiddle4
											{
												OFFSET -2.946640 0.000000 -0.000156
												CHANNELS 6 Xposition Yposition Zposition Xrotation Yrotation Zrotation
												End Site
												{
													OFFSET -294.664337 0.000000 -0.113670
												}
											}
										}
									}
								}
								JOINT mixamorig:RightHandRing1
								{
									OFFSET -9.103600 -0.043076 -1.865134
									CHANNELS 6 Xposition Yposition Zposition Xrotation Yrotation Zrotation
									JOINT mixamorig:RightHandRing2
									{
										OFFSET -3.379288 0.000000 -0.001055
										CHANNELS 6 Xposition Yposition Zposition Xrotation Yrotation Zrotation
										JOINT mixamorig:RightHandRing3
										{
											OFFSET -2.889687 -0.000015 0.000379
											CHANNELS 6 Xposition Yposition Zposition Xrotation Yrotation Zrotation
											JOINT mixamorig:RightHandRing4
											{
												OFFSET -2.638809 -0.000015 0.000941
												CHANNELS 6 Xposition Yposition Zposition Xrotation Yrotation Zrotation
												End Site
												{
													OFFSET -263.880371 0.000000 0.516020
												}
											}
										}
									}
								}
								JOINT mixamorig:RightHandPinky1
								{
									OFFSET -8.076683 -0.486710 -3.806280
									CHANNELS 6 Xposition Yposition Zposition Xrotation Yrotation Zrotation
									JOINT mixamorig:RightHandPinky2
									{
										OFFSET -3.600014 -0.000015 -0.003747
										CHANNELS 6 Xposition Yposition Zposition Xrotation Yrotation Zrotation
										JOINT mixamorig:RightHandPinky3
										{
											OFFSET -2.099983 0.000000 -0.005739
											CHANNELS 6 Xposition Yposition Zposition Xrotation Yrotation Zrotation
											JOINT mixamorig:RightHandPinky4
											{
												OFFSET -2.115768 -0.000031 -0.003680
												CHANNELS 6 Xposition Yposition Zposition Xrotation Yrotation Zrotation
												End Site
												{
													OFFSET -211.577087 0.000000 -0.350686
												}
											}
										}
									}
								}
							}
						}
					}
				}
				JOINT mixamorig:LeftShoulder
				{
					OFFSET 4.570447 11.014725 -2.160855
					CHANNELS 6 Xposition Yposition Zposition Xrotation Yrotation Zrotation
					JOINT mixamorig:LeftArm
					{
						OFFSET 10.592371 -0.524597 -2.232119
						CHANNELS 6 Xposition Yposition Zposition Xrotation Yrotation Zrotation
						JOINT mixamorig:LeftForeArm
						{
							OFFSET 27.841532 -0.000031 0.000026
							CHANNELS 6 Xposition Yposition Zposition Xrotation Yrotation Zrotation
							JOINT mixamorig:LeftHand
							{
								OFFSET 28.328846 -0.000061 0.000022
								CHANNELS 6 Xposition Yposition Zposition Xrotation Yrotation Zrotation
								JOINT mixamorig:LeftHandThumb1
								{
									OFFSET 2.466141 -1.576172 2.681732
									CHANNELS 6 Xposition Yposition Zposition Xrotation Yrotation Zrotation
									JOINT mixamorig:LeftHandThumb2
									{
										OFFSET 3.217812 -1.872070 1.916482
										CHANNELS 6 Xposition Yposition Zposition Xrotation Yrotation Zrotation
										JOINT mixamorig:LeftHandThumb3
										{
											OFFSET 2.656029 -1.528778 1.514513
											CHANNELS 6 Xposition Yposition Zposition Xrotation Yrotation Zrotation
											JOINT mixamorig:LeftHandThumb4
											{
												OFFSET 2.020889 -1.154053 1.115139
												CHANNELS 6 Xposition Yposition Zposition Xrotation Yrotation Zrotation
												End Site
												{
													OFFSET 190.885437 -115.081749 130.048782
												}
											}
										}
									}
								}
								JOINT mixamorig:LeftHandIndex1
								{
									OFFSET 9.109314 -0.518021 2.259871
									CHANNELS 6 Xposition Yposition Zposition Xrotation Yrotation Zrotation
									JOINT mixamorig:LeftHandIndex2
									{
										OFFSET 3.699989 0.000000 -0.000322
										CHANNELS 6 Xposition Yposition Zposition Xrotation Yrotation Zrotation
										JOINT mixamorig:LeftHandIndex3
										{
											OFFSET 2.850006 0.000000 0.000352
											CHANNELS 6 Xposition Yposition Zposition Xrotation Yrotation Zrotation
											JOINT mixamorig:LeftHandIndex4
											{
												OFFSET 2.774864 -0.000031 -0.000027
												CHANNELS 6 Xposition Yposition Zposition Xrotation Yrotation Zrotation
												End Site
												{
													OFFSET 277.486267 0.000000 -0.009857
												}
											}
										}
									}
								}
								JOINT mixamorig:LeftHandMiddle1
								{
									OFFSET 9.533394 0.000061 0.000044
									CHANNELS 6 Xposition Yposition Zposition Xrotation Yrotation Zrotation
									JOINT mixamorig:LeftHandMiddle2
									{
										OFFSET 3.699989 -0.000015 -0.000231
										CHANNELS 6 Xposition Yposition Zposition Xrotation Yrotation Zrotation
										JOINT mixamorig:LeftHandMiddle3
										{
											OFFSET 2.949997 -0.000015 -0.000059
											CHANNELS 6 Xposition Yposition Zposition Xrotation Yrotation Zrotation
											JOINT mixamorig:LeftHandMiddle4
											{
												OFFSET 2.952896 0.000031 0.000063
												CHANNELS 6 Xposition Yposition Zposition Xrotation Yrotation Zrotation
												End Site
												{
													OFFSET 295.289337 0.000000 0.022810
												}
											}
										}
									}
								}
								JOINT mixamorig:LeftHandRing1
								{
									OFFSET 9.104523 -0.042999 -1.865074
									CHANNELS 6 Xposition Yposition Zposition Xrotation Yrotation Zrotation
									JOINT mixamorig:LeftHandRing2
									{
										OFFSET 3.150009 -0.000031 0.000043
										CHANNELS 6 Xposition Yposition Zposition Xrotation Yrotation Zrotation
										JOINT mixamorig:LeftHandRing3
										{
											OFFSET 2.949982 -0.000015 0.000040
											CHANNELS 6 Xposition Yposition Zposition Xrotation Yrotation Zrotation
											JOINT mixamorig:LeftHandRing4
											{
												OFFSET 2.644348 0.000000 0.000057
												CHANNELS 6 Xposition Yposition Zposition Xrotation Yrotation Zrotation
												End Site
												{
													OFFSET 264.434631 0.000000 0.012105
												}
											}
										}
									}
								}
								JOINT mixamorig:LeftHandPinky1
								{
									OFFSET 8.077789 -0.486847 -3.806259
									CHANNELS 6 Xposition Yposition Zposition Xrotation Yrotation Zrotation
									JOINT mixamorig:LeftHandPinky2
									{
										OFFSET 3.599953 0.000031 0.014727
										CHANNELS 6 Xposition Yposition Zposition Xrotation Yrotation Zrotation
										JOINT mixamorig:LeftHandPinky3
										{
											OFFSET 2.100021 0.000015 0.007705
											CHANNELS 6 Xposition Yposition Zposition Xrotation Yrotation Zrotation
											JOINT mixamorig:LeftHandPinky4
											{
												OFFSET 2.125504 0.000031 0.007517
												CHANNELS 6 Xposition Yposition Zposition Xrotation Yrotation Zrotation
												End Site
												{
													OFFSET 212.550781 0.000000 0.625752
												}
											}
										}
									}
								}
							}
						}
					}
				}
			}
		}
	}
	JOINT mixamorig:RightUpLeg
	{
		OFFSET -8.207787 -6.751648 -1.599560
		CHANNELS 6 Xposition Yposition Zposition Xrotation Yrotation Zrotation
		JOINT mixamorig:RightLeg
		{
			OFFSET -0.000002 -44.370117 0.345942
			CHANNELS 6 Xposition Yposition Zposition Xrotation Yrotation Zrotation
			JOINT mixamorig:RightFoot
			{
				OFFSET 0.000003 -44.423679 -3.043532
				CHANNELS 6 Xposition Yposition Zposition Xrotation Yrotation Zrotation
				JOINT mixamorig:RightToeBase
				{
					OFFSET -0.000002 -8.728671 10.710558
					CHANNELS 6 Xposition Yposition Zposition Xrotation Yrotation Zrotation
					JOINT mixamorig:RightToe_End
					{
						OFFSET -0.000001 -0.000679 9.278119
						CHANNELS 6 Xposition Yposition Zposition Xrotation Yrotation Zrotation
						End Site
						{
							OFFSET 0.000000 -0.067690 927.812134
						}
					}
				}
			}
		}
	}
	JOINT mixamorig:LeftUpLeg
	{
		OFFSET 8.207793 -6.751686 -1.599556
		CHANNELS 6 Xposition Yposition Zposition Xrotation Yrotation Zrotation
		JOINT mixamorig:LeftLeg
		{
			OFFSET -0.000004 -44.370014 0.346954
			CHANNELS 6 Xposition Yposition Zposition Xrotation Yrotation Zrotation
			JOINT mixamorig:LeftFoot
			{
				OFFSET -0.000001 -44.423672 -3.044401
				CHANNELS 6 Xposition Yposition Zposition Xrotation Yrotation Zrotation
				JOINT mixamorig:LeftToeBase
				{
					OFFSET -0.000002 -8.728669 10.710558
					CHANNELS 6 Xposition Yposition Zposition Xrotation Yrotation Zrotation
					JOINT mixamorig:LeftToe_End
					{
						OFFSET -0.000003 -0.000679 9.278133
						CHANNELS 6 Xposition Yposition Zposition Xrotation Yrotation Zrotation
						End Site
						{
							OFFSET 0.000000 -0.068021 927.813477
						}
					}
				}
			}
		}
	}
}
MOTION
Frames: 3
Frame Time: 0.033333
0.000006 104.270477 1.554256 0.000010 0.000003 -0.000113 -0.000005 10.181587 0.131522 0.000001 -0.000003 0.000084 -0.000000 9.893967 -1.470711 0.000001 0.000000 -0.000000 -0.000000 9.220802 -1.370642 0.000000 -0.000000 -0.000000 0.000001 16.740433 -2.049030 0.000000 -0.000000 -0.000000 0.000000 9.617859 1.685014 0.000000 0.000000 0.000000 0.000002 22.037384 7.501101 0.000000 -0.000000 0.000000 -4.569968 11.014880 -2.160881 0.000008 0.000001 -0.000038 -10.592772 -0.524847 -2.231737 74.110086 68.225797 -54.176138 -27.841486 0.000021 0.000582 57.956013 109.299330 -75.959374 -28.328829 0.000021 0.000022 -0.000324 -0.000044 0.000007 -2.464595 -1.574222 2.682135 82.974477 -140.715421 138.763790 -3.215087 -1.873014 1.924387 301.043292 -18.937797 342.277226 -2.654808 -1.528241 1.512735 -55.278869 -8.518228 -15.714438 -2.018811 -1.152006 1.108057 -0.000002 -0.000006 0.000002 -9.108337 -0.518023 2.260122 -69.095614 12.880328 8.907112 -3.700057 -0.000149 0.001532 -72.077504 17.731197 12.940820 -2.850082 -0.000137 -0.000237 -70.193328 14.607247 10.292690 -2.772167 -0.000002 -0.000022 0.000000 -0.000002 -0.000001 -9.532537 -0.000223 0.000240 -68.912073 10.106795 7.007359 -3.700049 -0.000153 0.004014 -71.577070 14.252724 10.259395 -2.950041 -0.000175 -0.001764 -69.615665 11.545707 8.037659 -2.946633 0.000018 -0.000132 0.000003 -0.000002 0.000001 -9.103644 -0.043231 -1.864858 -66.433063 10.754401 7.035426 -3.379314 -0.000180 -0.000751 -70.836090 11.729264 8.363743 -2.889741 -0.000145 0.000673 -70.784194 8.580085 6.125601 -2.638815 -0.000001 0.000953 -0.000001 0.000001 0.000002 -8.076717 -0.486855 -3.806053 -61.265861 12.882263 7.597122 -3.600022 -0.000241 -0.003464 111.946869 171.867736 -174.682156 -2.100008 -0.000193 -0.005478 -70.507182 5.185538 3.538177 -2.115771 -0.000041 -0.003678 -0.000000 -0.000000 -0.000002 4.570446 11.014691 -2.160851 -0.000018 0.000010 -0.000021 10.592522 -0.524547 -2.232379 63.693515 -67.690105 45.227067 27.841721 -0.000063 -0.000093 65.041726 -107.271659 81.780526 28.328833 -0.000014 0.000040 0.000018 -0.000088 -0.000000 2.466135 -1.576160 2.681886 34.720375 122.314167 -90.170218 3.217839 -1.871985 1.916550 253.636343 35.406560 46.718443 2.656085 -1.528705 1.514623 73.426719 162.163007 -140.860726 2.020895 -1.154067 1.115147 -0.000001 0.000006 0.000001 9.109241 -0.517794 2.260120 -109.325490 -17.622462 -24.655825 3.699914 0.000225 -0.000075 -107.662277 -17.995750 -24.454768 2.849929 0.000232 0.000596 -106.567774 -17.645567 -23.511710 2.774888 -0.000045 -0.000030 0.000000 0.000004 -0.000001 9.533164 0.000086 0.000153 4.417294 -160.695718 25.522238 3.700063 0.000301 -0.000305 490.787833 -8.590408 18.621508 2.950021 0.000230 -0.000234 96.146258 -2.382751 2.655873 2.952868 -0.000017 0.000063 -0.000001 -0.000000 -0.000001 9.104432 -0.043030 -1.864994 179.016471 -17.072020 173.464907 3.149905 0.000367 -0.000105 481.404956 12.640498 -22.330216 2.949908 0.000241 -0.000182 84.764656 20.287781 -18.545284 2.644317 0.000045 0.000055 0.000001 0.000000 0.000000 8.077597 -0.486859 -3.806168 2.098734 -164.632667 18.321673 3.599821 0.000402 0.014607 494.435973 13.613543 -31.116822 2.099886 0.000281 0.007491 102.227489 22.301227 -27.201855 2.125517 -0.000016 0.007504 0.000001 -0.000002 -0.000002 -8.207786 -6.751667 -1.599560 -0.077001 -0.000003 0.000080 -0.000002 -44.370110 0.345938 0.153719 -0.000000 -0.000000 0.000000 -44.423679 -3.043532 -0.076700 0.000000 -0.000002 -0.000006 -8.728667 10.710559 -0.000009 -0.000000 -0.000000 -0.000001 -0.000679 9.278123 0.000000 -0.000000 -0.000000 8.207792 -6.751710 -1.599556 -0.074518 -0.000003 0.000081 -0.000002 -44.370014 0.346960 0.148822 0.000002 0.000000 -0.000001 -44.423664 -3.044403 -0.074314 0.000000 -0.000002 -0.000004 -8.728671 10.710558 0.000007 -0.000000 -0.000000 0.000000 -0.000680 9.278137 -0.000000 0.000000 -0.000001 
0.000006 104.270477 1.554256 0.000010 0.000003 -0.000113 -0.000005 10.181587 0.131522 0.000001 -0.000003 0.000084 -0.000000 9.893967 -1.470711 0.000001 0.000000 -0.000000 -0.000000 9.220802 -1.370642 0.000000 -0.000000 -0.000000 0.000001 16.740433 -2.049030 0.000000 -0.000000 -0.000000 0.000000 9.617859 1.685014 0.000000 0.000000 0.000000 0.000002 22.037384 7.501101 0.000000 -0.000000 0.000000 -4.569968 11.014880 -2.160881 0.000008 0.000001 -0.000038 -10.592776 -0.524848 -2.231741 75.310745 67.856270 -54.865305 -27.841490 0.000009 0.000573 58.162845 109.093721 -75.984598 -28.328829 0.000007 0.000037 -0.000317 -0.000045 0.000007 -2.464616 -1.574226 2.682172 78.915596 -142.509069 136.891744 -3.215078 -1.873008 1.924391 299.294409 -19.124081 341.536916 -2.654776 -1.528242 1.512747 -57.115825 -9.468481 -16.416846 -2.018811 -1.152002 1.108060 -0.000001 -0.000000 0.000002 -9.108341 -0.518038 2.260125 -67.916116 13.702362 9.270141 -3.700052 -0.000148 0.001513 -71.046453 18.401231 13.184102 -2.850076 -0.000150 -0.000216 -69.160132 14.889756 10.294117 -2.772160 -0.000020 -0.000009 -0.000000 -0.000000 -0.000007 -9.532554 -0.000225 0.000241 -68.150876 10.766192 7.355163 -3.700063 -0.000163 0.004038 -70.952879 14.546418 10.354028 -2.950042 -0.000212 -0.001765 -69.273910 11.581314 8.011521 -2.946621 0.000001 -0.000167 0.000001 -0.000000 -0.000002 -9.103653 -0.043219 -1.864867 -66.567194 11.265799 7.391101 -3.379323 -0.000185 -0.000765 -70.434796 11.669127 8.259433 -2.889746 -0.000175 0.000647 -70.526908 8.163125 5.801199 -2.638819 0.000014 0.000953 0.000000 -0.000001 0.000004 -8.076727 -0.486856 -3.806039 -61.680870 13.439931 7.996462 -3.600020 -0.000246 -0.003488 112.409423 171.915902 -174.760690 -2.100003 -0.000206 -0.005471 -70.107234 4.647245 3.132592 -2.115769 -0.000055 -0.003674 0.000000 -0.000002 -0.000003 4.570446 11.014691 -2.160851 -0.000018 0.000010 -0.000021 10.592522 -0.524545 -2.232379 65.063153 -67.233705 45.959240 27.841732 -0.000074 -0.000079 59.837546 -107.393865 76.143837 28.328831 -0.000013 0.000027 0.000022 -0.000088 0.000001 2.466108 -1.576177 2.681875 87.411286 116.065814 -132.959058 3.217813 -1.872028 1.916526 250.729742 47.316610 54.334384 2.656045 -1.528769 1.514617 52.632106 142.555911 -116.267100 2.020895 -1.154071 1.115158 0.000002 0.000003 0.000001 9.109171 -0.517698 2.260073 -141.006400 -16.128122 -43.606363 3.699734 0.000128 -0.000181 -165.448929 -23.392320 -116.654946 2.849828 0.000022 0.000472 -175.797458 -35.070860 -166.756377 2.774880 -0.000012 -0.000026 0.000001 0.000000 -0.000000 9.533299 0.000062 0.000129 -1.467627 -167.747165 -13.683277 3.700032 0.000284 -0.000366 468.665506 -4.546022 6.327600 2.950028 0.000092 -0.000216 60.094265 -3.008005 1.741748 2.952871 -0.000001 0.000063 -0.000000 -0.000001 0.000001 9.104663 -0.042924 -1.865038 170.139835 -12.102495 101.745517 3.149957 0.000294 -0.000157 457.503829 8.832305 -10.064563 2.949960 0.000128 -0.000135 55.433952 10.159039 -5.347003 2.644325 0.000044 0.000059 -0.000002 0.000001 -0.000000 8.077927 -0.486768 -3.806219 -10.516961 -169.811548 -86.647028 3.599871 0.000336 0.014548 472.644501 10.009746 -14.470577 2.099940 0.000204 0.007510 80.331556 14.767888 -12.240254 2.125535 -0.000017 0.007500 -0.000001 0.000006 0.000002 -8.207786 -6.751667 -1.599560 -0.077001 -0.000003 0.000080 -0.000002 -44.370110 0.345938 0.153719 -0.000000 -0.000000 0.000000 -44.423679 -3.043532 -0.076700 0.000000 -0.000002 -0.000006 -8.728667 10.710559 -0.000009 -0.000000 -0.000000 -0.000001 -0.000679 9.278123 0.000000 -0.000000 -0.000000 8.207792 -6.751710 -1.599556 -0.074518 -0.000003 0.000081 -0.000002 -44.370014 0.346960 0.148822 0.000002 0.000000 -0.000001 -44.423664 -3.044403 -0.074314 0.000000 -0.000002 -0.000004 -8.728671 10.710558 0.000007 -0.000000 -0.000000 0.000000 -0.000680 9.278137 -0.000000 0.000000 -0.000001 
0.000006 104.270477 1.554256 0.000010 0.000003 -0.000113 -0.000005 10.181587 0.131522 0.000001 -0.000003 0.000084 -0.000000 9.893967 -1.470711 0.000001 0.000000 -0.000000 -0.000000 9.220802 -1.370642 0.000000 -0.000000 -0.000000 0.000001 16.740433 -2.049030 0.000000 -0.000000 -0.000000 0.000000 9.617859 1.685014 0.000000 0.000000 0.000000 0.000002 22.037384 7.501101 0.000000 -0.000000 0.000000 -4.569968 11.014880 -2.160881 0.000008 0.000001 -0.000038 -10.592768 -0.524846 -2.231733 78.379276 68.223836 -57.817866 -27.841492 -0.000000 0.000573 59.327556 108.671370 -76.875138 -28.328829 0.000022 0.000024 -0.000316 -0.000044 0.000007 -2.464600 -1.574230 2.682161 78.410278 -142.185441 136.440938 -3.215074 -1.873022 1.924407 296.621619 -20.372549 340.266473 -2.654796 -1.528225 1.512745 -57.591868 -8.455840 -16.475405 -2.018826 -1.152017 1.108063 -0.000003 -0.000006 0.000002 -9.108341 -0.518037 2.260110 -67.881002 13.700315 9.262647 -3.700060 -0.000141 0.001523 -69.957659 18.930904 13.299065 -2.850077 -0.000119 -0.000250 -68.103673 15.706003 10.650370 -2.772169 0.000001 -0.000007 0.000003 -0.000004 -0.000004 -9.532548 -0.000237 0.000244 -68.575632 11.283886 7.767820 -3.700052 -0.000163 0.004027 -70.151814 15.615918 10.961424 -2.950056 -0.000194 -0.001766 -68.423606 12.562615 8.556719 -2.946615 0.000012 -0.000150 0.000001 0.000002 -0.000001 -9.103659 -0.043227 -1.864867 -66.712329 11.576441 7.617257 -3.379313 -0.000197 -0.000778 -70.550520 12.776029 9.064306 -2.889735 -0.000185 0.000676 -70.620597 9.346246 6.651016 -2.638802 -0.000017 0.000948 0.000003 -0.000002 0.000003 -8.076727 -0.486876 -3.806068 -61.857356 13.383052 7.989870 -3.600016 -0.000239 -0.003461 111.832962 171.157424 -174.185629 -2.100012 -0.000205 -0.005468 -70.970952 5.625132 3.883553 -2.115767 -0.000042 -0.003671 0.000002 -0.000001 -0.000004 4.570446 11.014691 -2.160851 -0.000018 0.000010 -0.000021 10.592525 -0.524545 -2.232388 65.696714 -68.270364 47.279748 27.841749 -0.000063 -0.000101 47.209438 -107.600574 61.680713 28.328838 -0.000028 0.000035 0.000022 -0.000088 0.000000 2.466096 -1.576171 2.681856 90.105345 113.710451 -134.330792 3.217746 -1.872079 1.916511 210.309338 59.122473 97.011861 2.655930 -1.528836 1.514620 -5.371126 137.343397 -50.448593 2.020895 -1.154055 1.115149 0.000002 0.000003 0.000001 9.109467 -0.517866 2.259899 -196.515020 -13.927148 80.093756 3.700103 0.000155 -0.000406 -76.575853 -151.768101 -144.636318 2.850047 0.000078 0.000237 -124.098035 -157.763272 -168.094398 2.774878 -0.000030 -0.000029 -0.000001 -0.000001 0.000001 9.533518 0.000320 0.000020 -27.108688 -171.437748 -145.535349 3.700045 0.000166 -0.000373 438.822114 -10.390687 8.543796 2.950030 0.000001 -0.000137 28.259471 -8.032904 2.026065 2.952848 -0.000028 0.000067 0.000002 0.000000 0.000001 9.104622 -0.042680 -1.865121 148.413153 -7.669777 26.671516 3.150011 0.000171 -0.000123 427.710271 2.884133 -1.934030 2.949975 0.000031 -0.000013 12.497557 4.402387 -0.482179 2.644331 0.000015 0.000055 0.000002 0.000001 0.000001 8.077843 -0.486520 -3.806325 -35.367782 -175.653204 -164.762673 3.599914 0.000164 0.014512 427.362915 13.650567 -8.917394 2.099979 0.000031 0.007601 21.187136 16.413783 -3.076521 2.125513 -0.000029 0.007509 0.000002 0.000002 -0.000001 -8.207786 -6.751667 -1.599560 -0.077001 -0.000003 0.000080 -0.000002 -44.370110 0.345938 0.153719 -0.000000 -0.000000 0.000000 -44.423679 -3.043532 -0.076700 0.000000 -0.000002 -0.000006 -8.728667 10.710559 -0.000009 -0.000000 -0.000000 -0.000001 -0.000679 9.278123 0.000000 -0.000000 -0.000000 8.207792 -6.751710 -1.599556 -0.074518 -0.000003 0.000081 -0.000002 -44.370014 0.346960 0.148822 0.000002 0.000000 -0.000001 -44.423664 -3.044403 -0.074314 0.000000 -0.000002 -0.000004 -8.728671 10.710558 0.000007 -0.000000 -0.000000 0.000000 -0.000680 9.278137 -0.000000 0.000000 -0.000001 
